<svg width="228" height="101" viewBox="0 0 228 101" fill="none" xmlns="http://www.w3.org/2000/svg">
<path d="M4.3125 63.9844C3.84375 63.5156 3.35156 63.0234 2.83594 62.5078C2.36719 61.9922 1.92188 61.4297 1.5 60.8203C1.07812 60.2109 0.726562 59.5781 0.445312 58.9219C0.210938 58.2656 0.09375 57.5625 0.09375 56.8125C0.09375 55.4531 0.515625 54.2344 1.35938 53.1562C2.20312 52.0312 3.23438 50.8594 4.45312 49.6406L26.5312 27.7031C27.6094 26.625 28.7109 25.6641 29.8359 24.8203C31.0078 23.9297 32.2969 23.4844 33.7031 23.4844C34.6406 23.4844 35.6016 23.7422 36.5859 24.2578C37.5703 24.7734 38.625 25.5938 39.75 26.7188C40.8281 27.7969 41.5781 28.8047 42 29.7422C42.4688 30.6328 42.7031 31.5469 42.7031 32.4844C42.7031 33.8906 42.2812 35.2031 41.4375 36.4219C40.6406 37.5938 39.7031 38.7188 38.625 39.7969L21.3281 56.9531L38.4844 73.8281C39.6094 74.9531 40.5938 76.1016 41.4375 77.2734C42.2812 78.3984 42.7031 79.6406 42.7031 81C42.7031 81.9375 42.4688 82.8984 42 83.8828C41.5312 84.8672 40.6875 85.9688 39.4688 87.1875C38.3906 88.2656 37.3828 89.0391 36.4453 89.5078C35.5547 89.9297 34.6406 90.1406 33.7031 90.1406C32.3438 90.1406 31.0547 89.7188 29.8359 88.875C28.6641 88.0312 27.5156 87.0469 26.3906 85.9219L4.3125 63.9844ZM132.562 93.7969C132.188 94.5938 131.766 95.4141 131.297 96.2578C130.875 97.0547 130.336 97.8047 129.68 98.5078C129.07 99.1641 128.344 99.7031 127.5 100.125C126.703 100.594 125.766 100.828 124.688 100.828C123.516 100.828 122.203 100.5 120.75 99.8438C118.828 99 117.445 98.0625 116.602 97.0312C115.758 96 115.266 94.9219 115.125 93.7969C115.125 92.4375 115.266 91.2656 115.547 90.2812C115.875 89.2969 116.25 88.2656 116.672 87.1875L150.984 6.89062C151.312 6.14062 151.664 5.36719 152.039 4.57031C152.414 3.77344 152.859 3.07031 153.375 2.46094C153.891 1.80469 154.477 1.26562 155.133 0.84375C155.836 0.375 156.656 0.09375 157.594 0C158.578 0 159.469 0.0703125 160.266 0.210938C161.109 0.351562 162 0.609375 162.938 0.984375C164.766 1.78125 166.078 2.69531 166.875 3.72656C167.672 4.71094 168.141 5.76562 168.281 6.89062C168.281 8.29688 168.117 9.53906 167.789 10.6172C167.508 11.6953 167.156 12.7031 166.734 13.6406L132.562 93.7969ZM201.609 85.9219C200.484 87.0469 199.312 88.0312 198.094 88.875C196.922 89.7188 195.656 90.1406 194.297 90.1406C193.359 90.1406 192.422 89.9297 191.484 89.5078C190.594 89.0391 189.609 88.2656 188.531 87.1875C187.312 85.9688 186.469 84.8672 186 83.8828C185.531 82.8984 185.297 81.9375 185.297 81C185.297 79.6406 185.719 78.3984 186.562 77.2734C187.406 76.1016 188.391 74.9531 189.516 73.8281L206.672 56.9531L189.375 39.7969C188.297 38.7188 187.336 37.5938 186.492 36.4219C185.695 35.2031 185.297 33.8906 185.297 32.4844C185.297 31.5469 185.508 30.6328 185.93 29.7422C186.398 28.8047 187.172 27.7969 188.25 26.7188C189.375 25.5938 190.43 24.7734 191.414 24.2578C192.398 23.7422 193.359 23.4844 194.297 23.4844C195.703 23.4844 196.969 23.9297 198.094 24.8203C199.266 25.6641 200.391 26.625 201.469 27.7031L223.547 49.6406C224.766 50.8594 225.797 52.0312 226.641 53.1562C227.484 54.2344 227.906 55.4531 227.906 56.8125C227.906 57.5625 227.766 58.2656 227.484 58.9219C227.25 59.5781 226.922 60.2109 226.5 60.8203C226.078 61.4297 225.609 61.9922 225.094 62.5078C224.625 63.0234 224.156 63.5156 223.688 63.9844L201.609 85.9219Z" fill="url(#paint0_linear_2_2)"/>
<defs>
<linearGradient id="paint0_linear_2_2" x1="206.815" y1="27.6429" x2="-58.3703" y2="27.6429" gradientUnits="userSpaceOnUse">
<stop stop-color="#078EFD"/>
<stop offset="1" stop-color="#61C9F7"/>
</linearGradient>
</defs>
</svg>
